<svg xmlns="http://www.w3.org/2000/svg" viewBox="0 0 100 132" role="img" aria-label="Hallmark: violin enlist wave"><rect x="0" y="0" width="100" height="132" rx="16" ry="16" fill="#ffece6"/><circle cx="34.000" cy="18.000" r="6.400" fill="#b13c15"/><circle cx="66.000" cy="18.000" r="6.400" fill="#b13c15"/><circle cx="50.000" cy="34.000" r="6.400" fill="#b13c15"/><circle cx="50.000" cy="50.000" r="6.400" fill="#b13c15"/><circle cx="18.000" cy="66.000" r="6.400" fill="#b13c15"/><circle cx="34.000" cy="66.000" r="6.400" fill="#b13c15"/><circle cx="50.000" cy="66.000" r="6.400" fill="#b13c15"/><circle cx="66.000" cy="66.000" r="6.400" fill="#b13c15"/><circle cx="82.000" cy="66.000" r="6.400" fill="#b13c15"/><circle cx="18.000" cy="82.000" r="6.400" fill="#b13c15"/><circle cx="34.000" cy="82.000" r="6.400" fill="#b13c15"/><circle cx="66.000" cy="82.000" r="6.400" fill="#b13c15"/><circle cx="82.000" cy="82.000" r="6.400" fill="#b13c15"/><circle cx="18.000" cy="98.000" r="6.400" fill="#b13c15"/><circle cx="50.000" cy="98.000" r="7.360" fill="#8080fc"/><circle cx="82.000" cy="98.000" r="6.400" fill="#b13c15"/><circle cx="18.000" cy="114.000" r="6.400" fill="#b13c15"/><circle cx="82.000" cy="114.000" r="6.400" fill="#b13c15"/></svg>